<svg width="16" height="16" viewBox="0 0 16 16" xmlns="http://www.w3.org/2000/svg"><title>rss-square-icon</title><desc>Created with Sketch.</desc><path d="M0 0v16h16V0H0zm3.923 13.6c-.838 0-1.516-.68-1.516-1.516 0-.837.68-1.515 1.516-1.515.837 0 1.515.677 1.515 1.514 0 .838-.678 1.516-1.515 1.516zm3.62 0c-.028-2.82-2.316-5.108-5.136-5.137V6.217c4.065.03 7.354 3.318 7.383 7.383H7.544zm3.805 0c-.007-2.39-.94-4.634-2.63-6.325-1.687-1.686-3.927-2.62-6.31-2.63V2.4c6.172.022 11.17 5.025 11.185 11.2h-2.245z" fill="#F6A623"/></svg>